<?xml version="1.0" encoding="utf-8"?>
<!-- Generator: Adobe Illustrator 24.3.0, SVG Export Plug-In . SVG Version: 6.00 Build 0)  -->
<svg version="1.2" baseProfile="tiny" id="Layer_1" xmlns="http://www.w3.org/2000/svg" xmlns:xlink="http://www.w3.org/1999/xlink"
	 x="0px" y="0px" viewBox="0 0 544.7 290.8" overflow="visible" xml:space="preserve">
<linearGradient id="SVGID_1_" gradientUnits="userSpaceOnUse" x1="15.248" y1="146.619" x2="241.0746" y2="146.619">
	<stop  offset="0" style="stop-color: #00A8DE"/>
	<stop  offset="0.2" style="stop-color: #333391"/>
	<stop  offset="0.4" style="stop-color: #E91388"/>
	<stop  offset="0.6" style="stop-color: #EB2D2E"/>
	<stop  offset="0.8" style="stop-color: #FDE92B"/>
	<stop  offset="1" style="stop-color: #009E54"/>
</linearGradient>
<path fill="url(#SVGID_1_)" d="M 229.9 217 c 0 17.5 0 34.9 0 52.4 c -67.8 0 -135.5 0 -203.3 0 c 0 -36.7 0 -110.4 0 -110.4 l 0.1 -80.7 c 0 0 0 -36.3 0 -54.5 c 44.7 0 89.3 0 134.3 0 c 0 1 0 2 0 3 c 0 18 0.2 35.9 -0.1 53.9 c -0.1 8.1 5.7 12.2 12.1 12.2 c 17.9 -0.2 35.7 -0.1 53.6 -0.1 c 1 0 2.1 0 3.3 0 c 0 13.6 0 27.1 0 40.7 H 241 c 0 -14.7 0 -29.3 0 -44 c 0 -3.3 -1 -5.7 -3.3 -8 c -22 -21.9 -44 -43.8 -65.9 -65.8 c -2 -2 -4.1 -2.8 -6.9 -2.8 c -45.9 0.1 -91.9 0 -137.8 0.1 c -7.7 0 -11.8 4.1 -11.8 11.8 c 0 16.7 0 33.5 0 50.2 c 0 1 0 3.4 0 3.4 V 159 c 0 0 0 2.6 0 3.7 c 0 34.9 0.1 69.7 -0.1 104.6 c 0 6.4 1.9 11 8.1 13.3 c 69.9 0 139.8 0 209.8 0 c 0.7 -0.3 1.3 -0.7 2 -1 c 3.6 -1.9 5.6 -4.8 5.8 -8.9 c 0 -1 0 -1.9 0 -2.9 c 0 -16.9 0 -33.8 0 -50.7 H 229.9 z M 172 32.3 c 16.4 16.4 32.8 32.9 49.1 49.2 c -16.1 0 -32.5 0 -49.1 0 C 172 64.9 172 48.5 172 32.3 z"/>
<g>
	<linearGradient id="SVGID_2_" gradientUnits="userSpaceOnUse" x1="36.5605" y1="174.6147" x2="275.0044" y2="174.6147">
		<stop  offset="0" style="stop-color: #00A8DE"/>
		<stop  offset="0.2" style="stop-color: #333391"/>
		<stop  offset="0.4" style="stop-color: #E91388"/>
		<stop  offset="0.6" style="stop-color: #EB2D2E"/>
		<stop  offset="0.8" style="stop-color: #FDE92B"/>
		<stop  offset="1" style="stop-color: #009E54"/>
	</linearGradient>
	<path fill="url(#SVGID_2_)" d="M 269.5 221.9 H 42.1 c -3 0 -5.5 -2.5 -5.5 -5.5 v -83.6 c 0 -3 2.5 -5.5 5.5 -5.5 h 227.4 c 3 0 5.5 2.5 5.5 5.5 v 83.6 C 275 219.5 272.5 221.9 269.5 221.9 z M 47.6 210.9 H 264 v -72.6 H 47.6 V 210.9 z"/>
</g>
<g>
	<path fill="white" d="M 61.5 199.4 c -5 -3.9 -7.6 -9.7 -7.9 -17.4 c -0.1 -1.5 -0.1 -4 -0.1 -7.5 c 0 -3.5 0 -6.1 0.1 -7.7 c 0.3 -7.3 3 -12.9 8 -16.7 s 11.9 -5.7 20.4 -5.7 c 5.7 0 10.8 0.8 15.2 2.5 s 7.8 4 10.1 6.8 c 2.4 2.9 3.6 6 3.7 9.5 c 0 0.5 -0.2 0.9 -0.5 1.3 c -0.4 0.4 -0.8 0.5 -1.3 0.5 H 90.6 c -1.1 0 -1.9 -0.3 -2.4 -0.9 c -0.1 -0.1 -0.3 -0.5 -0.8 -1.1 c -0.5 -0.6 -1.1 -1.1 -2.1 -1.6 c -0.9 -0.4 -2 -0.7 -3.3 -0.7 c -4.2 0 -6.3 2.1 -6.5 6.3 c -0.1 1.5 -0.1 3.9 -0.1 7.1 c 0 3.2 0 5.6 0.1 7.3 c 0.2 4.8 2.4 7.2 6.8 7.2 c 2.3 0 4 -0.5 5.3 -1.4 c 1.3 -1 1.9 -2.5 1.9 -4.6 v -0.1 h -4 c -0.6 0 -1.2 -0.2 -1.6 -0.7 c -0.5 -0.5 -0.7 -1 -0.7 -1.6 V 171 c 0 -0.6 0.2 -1.2 0.7 -1.6 c 0.4 -0.5 1 -0.7 1.6 -0.7 h 23.2 c 0.6 0 1.2 0.2 1.6 0.7 c 0.4 0.5 0.7 1 0.7 1.6 v 11 c 0 5 -1.2 9.2 -3.7 12.7 c -2.4 3.5 -5.9 6.1 -10.2 7.9 c -4.4 1.8 -9.4 2.7 -15.2 2.7 C 73.3 205.2 66.5 203.3 61.5 199.4 z"/>
	<path fill="white" d="M 119.4 203.7 c -0.5 -0.5 -0.7 -1 -0.7 -1.6 v -54.6 c 0 -0.6 0.2 -1.2 0.7 -1.6 c 0.4 -0.5 1 -0.7 1.6 -0.7 h 17.2 c 0.6 0 1.2 0.2 1.6 0.7 c 0.5 0.5 0.7 1 0.7 1.6 v 54.6 c 0 0.6 -0.2 1.2 -0.7 1.6 c -0.5 0.5 -1 0.7 -1.6 0.7 H 121 C 120.3 204.4 119.8 204.1 119.4 203.7 z"/>
	<path fill="white" d="M 150.4 203.7 c -0.5 -0.5 -0.7 -1 -0.7 -1.6 v -54.6 c 0 -0.6 0.2 -1.2 0.7 -1.6 c 0.4 -0.5 1 -0.7 1.6 -0.7 h 42.6 c 0.6 0 1.2 0.2 1.6 0.7 c 0.5 0.5 0.7 1 0.7 1.6 v 12.8 c 0 0.6 -0.2 1.2 -0.7 1.6 c -0.5 0.5 -1 0.7 -1.6 0.7 h -24.2 v 6.2 h 22.5 c 0.6 0 1.2 0.2 1.6 0.7 c 0.5 0.5 0.7 1 0.7 1.6 v 12.8 c 0 0.6 -0.2 1.2 -0.7 1.6 c -0.5 0.5 -1 0.7 -1.6 0.7 h -22.5 v 15.9 c 0 0.6 -0.2 1.2 -0.7 1.6 c -0.5 0.5 -1 0.7 -1.6 0.7 H 152 C 151.4 204.4 150.9 204.1 150.4 203.7 z"/>
</g>
<g>
	<path fill="white" d="M 278.1 203.7 c -0.5 -0.5 -0.7 -1 -0.7 -1.6 v -54.6 c 0 -0.6 0.2 -1.2 0.7 -1.6 c 0.5 -0.5 1 -0.7 1.6 -0.7 h 25 c 8.1 0 14.4 1.8 19 5.4 c 4.6 3.6 6.8 8.7 6.8 15.1 c 0 3.7 -0.8 6.9 -2.4 9.7 c -1.6 2.8 -3.9 5.1 -6.7 6.9 l 10.4 19.3 c 0.2 0.3 0.3 0.6 0.3 0.9 c 0 0.5 -0.2 0.9 -0.5 1.3 c -0.4 0.4 -0.8 0.5 -1.3 0.5 h -17.3 c -1 0 -1.8 -0.2 -2.4 -0.7 c -0.6 -0.5 -1 -1 -1.2 -1.6 l -7.3 -16.1 h -3.5 v 16.1 c 0 0.6 -0.2 1.2 -0.7 1.6 c -0.5 0.5 -1 0.7 -1.6 0.7 h -16.6 C 279.1 204.4 278.5 204.1 278.1 203.7 z M 304.7 169.9 c 1.2 0 2.2 -0.4 2.9 -1.2 s 1 -1.8 1 -3.1 c 0 -1.2 -0.3 -2.3 -1 -3.3 s -1.6 -1.4 -2.9 -1.4 h -6.2 v 9 H 304.7 z"/>
	<path fill="white" d="M 334.3 203.8 c -0.4 -0.4 -0.5 -0.8 -0.5 -1.3 c 0 -0.2 0 -0.4 0.1 -0.6 l 18.8 -53.9 c 0.2 -0.7 0.6 -1.4 1.3 -1.9 c 0.6 -0.6 1.5 -0.8 2.5 -0.8 h 18.3 c 1.1 0 1.9 0.3 2.5 0.8 c 0.6 0.6 1 1.2 1.3 1.9 l 18.8 53.9 c 0.1 0.2 0.1 0.4 0.1 0.6 c 0 0.5 -0.2 0.9 -0.5 1.3 c -0.4 0.4 -0.8 0.5 -1.3 0.5 H 380 c -1.7 0 -2.8 -0.7 -3.3 -2.1 l -2 -5.6 h -18.2 l -2 5.6 c -0.5 1.4 -1.6 2.1 -3.3 2.1 h -15.6 C 335.1 204.4 334.7 204.2 334.3 203.8 z M 360.9 180.2 h 9.5 l -4.8 -15.7 L 360.9 180.2 z"/>
	<path fill="white" d="M 402.8 203.7 c -0.5 -0.5 -0.7 -1 -0.7 -1.6 v -54.6 c 0 -0.6 0.2 -1.2 0.7 -1.6 c 0.5 -0.5 1 -0.7 1.6 -0.7 h 13.3 c 1.6 0 2.8 0.8 3.6 2.3 l 12.2 20.3 l 12.2 -20.3 c 0.8 -1.5 2.1 -2.3 3.6 -2.3 h 13.3 c 0.6 0 1.2 0.2 1.6 0.7 c 0.5 0.5 0.7 1 0.7 1.6 v 54.6 c 0 0.6 -0.2 1.2 -0.7 1.6 c -0.5 0.5 -1 0.7 -1.6 0.7 h -15.3 c -0.6 0 -1.2 -0.2 -1.6 -0.7 c -0.5 -0.5 -0.7 -1 -0.7 -1.6 v -23.1 l -5.6 9.1 c -0.4 0.6 -0.8 1.1 -1.3 1.5 c -0.5 0.4 -1.1 0.6 -1.8 0.6 h -5.9 c -0.7 0 -1.3 -0.2 -1.8 -0.6 c -0.5 -0.4 -0.9 -0.9 -1.3 -1.5 l -5.6 -9.1 v 23.1 c 0 0.6 -0.2 1.2 -0.7 1.6 c -0.5 0.5 -1 0.7 -1.6 0.7 h -15.3 C 403.8 204.4 403.3 204.1 402.8 203.7 z"/>
	<path fill="white" d="M 470.4 203.8 c -0.4 -0.4 -0.5 -0.8 -0.5 -1.3 c 0 -0.2 0 -0.4 0.1 -0.6 l 18.8 -53.9 c 0.2 -0.7 0.6 -1.4 1.3 -1.9 c 0.6 -0.6 1.5 -0.8 2.5 -0.8 h 18.3 c 1.1 0 1.9 0.3 2.5 0.8 c 0.6 0.6 1 1.2 1.3 1.9 l 18.8 53.9 c 0.1 0.2 0.1 0.4 0.1 0.6 c 0 0.5 -0.2 0.9 -0.5 1.3 c -0.4 0.4 -0.8 0.5 -1.3 0.5 h -15.6 c -1.7 0 -2.8 -0.7 -3.3 -2.1 l -2 -5.6 h -18.2 l -2 5.6 c -0.5 1.4 -1.6 2.1 -3.3 2.1 h -15.6 C 471.2 204.4 470.7 204.2 470.4 203.8 z M 496.9 180.2 h 9.5 l -4.8 -15.7 L 496.9 180.2 z"/>
</g>
<g>
	<path fill="white" d="M 211.1 199.4 c -5 -3.9 -7.7 -9.5 -8 -17 c -0.1 -1.5 -0.1 -4 -0.1 -7.3 c 0 -3.4 0 -5.9 0.1 -7.5 c 0.2 -4.8 1.4 -9 3.8 -12.5 c 2.4 -3.5 5.7 -6.1 9.8 -7.9 c 4.2 -1.8 9 -2.7 14.5 -2.7 c 5.5 0 10.4 0.9 14.5 2.7 c 4.2 1.8 7.4 4.4 9.8 7.9 c 2.4 3.5 3.7 7.7 3.8 12.5 c 0.1 3.2 0.2 5.7 0.2 7.5 c 0 1.9 -0.1 4.3 -0.2 7.3 c -0.3 7.4 -3 13.1 -8 17 c -5 3.9 -11.7 5.8 -20.2 5.8 C 222.9 205.2 216.1 203.3 211.1 199.4 z M 235.8 187 c 1.1 -1.1 1.7 -2.8 1.7 -5.2 c 0.1 -3.3 0.2 -5.7 0.2 -7.2 c 0 -1.6 -0.1 -4 -0.2 -7 c -0.1 -2.3 -0.6 -4 -1.8 -5.2 c -1.1 -1.1 -2.6 -1.7 -4.5 -1.7 c -1.9 0 -3.4 0.6 -4.5 1.7 c -1.1 1.1 -1.7 2.8 -1.8 5.2 c -0.1 1.5 -0.1 3.9 -0.1 7 s 0 5.5 0.1 7.2 c 0.1 2.3 0.6 4 1.7 5.2 c 1.1 1.1 2.6 1.7 4.5 1.7 C 233.2 188.7 234.7 188.2 235.8 187 z"/>
</g>
</svg>
