<?xml version="1.0" encoding="utf-8"?>
<!-- Generator: Adobe Illustrator 24.3.0, SVG Export Plug-In . SVG Version: 6.00 Build 0)  -->
<svg version="1.1" id="Layer_1" xmlns="http://www.w3.org/2000/svg" xmlns:xlink="http://www.w3.org/1999/xlink" x="0px" y="0px"
	 viewBox="0 0 633.9 290.8" style="enable-background:new 0 0 633.9 290.8;" xml:space="preserve">
<style type="text/css">
	.st0{fill:url(#SVGID_1_);}
	.st1{fill:url(#SVGID_2_);}
	.st2{fill:#FFFFFF;}
	.st3{fill:#EAEAEA;}
</style>
<linearGradient id="SVGID_1_" gradientUnits="userSpaceOnUse" x1="15.2" y1="145.1398" x2="241" y2="145.1398" gradientTransform="matrix(1 0 0 -1 0 291.8898)">
	<stop  offset="0" style="stop-color:#00A8DE"/>
	<stop  offset="0.2" style="stop-color:#333391"/>
	<stop  offset="0.4" style="stop-color:#E91388"/>
	<stop  offset="0.6" style="stop-color:#EB2D2E"/>
	<stop  offset="0.8" style="stop-color:#FDE92B"/>
	<stop  offset="1" style="stop-color:#009E54"/>
</linearGradient>
<path class="st0" d="M229.9,217c0,17.5,0,34.9,0,52.4c-67.8,0-135.5,0-203.3,0c0-36.7,0-110.4,0-110.4l0.1-80.7c0,0,0-36.3,0-54.5
	c44.7,0,89.3,0,134.3,0c0,1,0,2,0,3c0,18,0.2,35.9-0.1,53.9c-0.1,8.1,5.7,12.2,12.1,12.2c17.9-0.2,35.7-0.1,53.6-0.1
	c1,0,2.1,0,3.3,0c0,13.6,0,27.1,0,40.7H241c0-14.7,0-29.3,0-44c0-3.3-1-5.7-3.3-8c-22-21.9-44-43.8-65.9-65.8c-2-2-4.1-2.8-6.9-2.8
	C119,13,73,12.9,27.1,13c-7.7,0-11.8,4.1-11.8,11.8c0,16.7,0,33.5,0,50.2c0,1,0,3.4,0,3.4V159c0,0,0,2.6,0,3.7
	c0,34.9,0.1,69.7-0.1,104.6c0,6.4,1.9,11,8.1,13.3c69.9,0,139.8,0,209.8,0c0.7-0.3,1.3-0.7,2-1c3.6-1.9,5.6-4.8,5.8-8.9
	c0-1,0-1.9,0-2.9c0-16.9,0-33.8,0-50.7L229.9,217L229.9,217z M172,32.3c16.4,16.4,32.8,32.9,49.1,49.2c-16.1,0-32.5,0-49.1,0
	C172,64.9,172,48.5,172,32.3z"/>
<g>
	
		<linearGradient id="SVGID_2_" gradientUnits="userSpaceOnUse" x1="36.6" y1="117.2898" x2="303.5113" y2="117.2898" gradientTransform="matrix(1 0 0 -1 0 291.8898)">
		<stop  offset="0" style="stop-color:#00A8DE"/>
		<stop  offset="0.2" style="stop-color:#333391"/>
		<stop  offset="0.4" style="stop-color:#E91388"/>
		<stop  offset="0.6" style="stop-color:#EB2D2E"/>
		<stop  offset="0.8" style="stop-color:#FDE92B"/>
		<stop  offset="1" style="stop-color:#009E54"/>
	</linearGradient>
	<path class="st1" d="M297.4,221.9H42.8c-3.4,0-6.2-2.5-6.2-5.5v-83.6c0-3,2.8-5.5,6.2-5.5h254.6c3.4,0,6.2,2.5,6.2,5.5v83.6
		C303.5,219.5,300.7,221.9,297.4,221.9z M48.9,210.9h242.3v-72.6H48.9V210.9z"/>
</g>
<g>
	<path class="st2" d="M370.6,203.7c-0.5-0.5-0.7-1-0.7-1.6v-54.6c0-0.6,0.2-1.2,0.7-1.6c0.5-0.5,1-0.7,1.6-0.7h25
		c8.1,0,14.4,1.8,19,5.4c4.6,3.6,6.8,8.7,6.8,15.1c0,3.7-0.8,6.9-2.4,9.7s-3.9,5.1-6.7,6.9l10.4,19.3c0.2,0.3,0.3,0.6,0.3,0.9
		c0,0.5-0.2,0.9-0.5,1.3c-0.4,0.4-0.8,0.5-1.3,0.5h-17.3c-1,0-1.8-0.2-2.4-0.7s-1-1-1.2-1.6l-7.3-16.1h-3.5V202
		c0,0.6-0.2,1.2-0.7,1.6c-0.5,0.5-1,0.7-1.6,0.7h-16.6C371.6,204.4,371,204.1,370.6,203.7z M397.2,169.9c1.2,0,2.2-0.4,2.9-1.2
		s1-1.8,1-3.1c0-1.2-0.3-2.3-1-3.3s-1.6-1.4-2.9-1.4H391v9H397.2z"/>
	<path class="st2" d="M426.8,203.8c-0.4-0.4-0.5-0.8-0.5-1.3c0-0.2,0-0.4,0.1-0.6l18.8-53.9c0.2-0.7,0.6-1.4,1.3-1.9
		c0.6-0.6,1.5-0.8,2.5-0.8h18.3c1.1,0,1.9,0.3,2.5,0.8c0.6,0.6,1,1.2,1.3,1.9l18.8,53.9c0.1,0.2,0.1,0.4,0.1,0.6
		c0,0.5-0.2,0.9-0.5,1.3c-0.4,0.4-0.8,0.5-1.3,0.5h-15.7c-1.7,0-2.8-0.7-3.3-2.1l-2-5.6H449l-2,5.6c-0.5,1.4-1.6,2.1-3.3,2.1h-15.6
		C427.6,204.4,427.2,204.2,426.8,203.8z M453.4,180.2h9.5l-4.8-15.7L453.4,180.2z"/>
	<path class="st2" d="M495.3,203.7c-0.5-0.5-0.7-1-0.7-1.6v-54.6c0-0.6,0.2-1.2,0.7-1.6c0.5-0.5,1-0.7,1.6-0.7h13.3
		c1.6,0,2.8,0.8,3.6,2.3l12.2,20.3l12.2-20.3c0.8-1.5,2.1-2.3,3.6-2.3h13.3c0.6,0,1.2,0.2,1.6,0.7c0.5,0.5,0.7,1,0.7,1.6v54.6
		c0,0.6-0.2,1.2-0.7,1.6c-0.5,0.5-1,0.7-1.6,0.7h-15.3c-0.6,0-1.2-0.2-1.6-0.7c-0.5-0.5-0.7-1-0.7-1.6V179l-5.6,9.1
		c-0.4,0.6-0.8,1.1-1.3,1.5s-1.1,0.6-1.8,0.6h-5.9c-0.7,0-1.3-0.2-1.8-0.6c-0.5-0.4-0.9-0.9-1.3-1.5l-5.6-9.1v23.1
		c0,0.6-0.2,1.2-0.7,1.6c-0.5,0.5-1,0.7-1.6,0.7h-15.3C496.3,204.4,495.8,204.1,495.3,203.7z"/>
	<path class="st2" d="M562.9,203.8c-0.4-0.4-0.5-0.8-0.5-1.3c0-0.2,0-0.4,0.1-0.6l18.8-53.9c0.2-0.7,0.6-1.4,1.3-1.9
		c0.6-0.6,1.5-0.8,2.5-0.8h18.3c1.1,0,1.9,0.3,2.5,0.8c0.6,0.6,1,1.2,1.3,1.9l18.8,53.9c0.1,0.2,0.1,0.4,0.1,0.6
		c0,0.5-0.2,0.9-0.5,1.3c-0.4,0.4-0.8,0.5-1.3,0.5h-15.6c-1.7,0-2.8-0.7-3.3-2.1l-2-5.6h-18.2l-2,5.6c-0.5,1.4-1.6,2.1-3.3,2.1
		h-15.6C563.7,204.4,563.2,204.2,562.9,203.8z M589.4,180.2h9.5l-4.8-15.7L589.4,180.2z"/>
</g>
<g>
	<path class="st2" d="M318.4,199.4c-5-3.9-7.7-9.5-8-17c-0.1-1.5-0.1-4-0.1-7.3c0-3.4,0-5.9,0.1-7.5c0.2-4.8,1.4-9,3.8-12.5
		s5.7-6.1,9.8-7.9c4.2-1.8,9-2.7,14.5-2.7s10.4,0.9,14.5,2.7c4.2,1.8,7.4,4.4,9.8,7.9c2.4,3.5,3.7,7.7,3.8,12.5
		c0.1,3.2,0.2,5.7,0.2,7.5c0,1.9-0.1,4.3-0.2,7.3c-0.3,7.4-3,13.1-8,17s-11.7,5.8-20.2,5.8C330.2,205.2,323.4,203.3,318.4,199.4z
		 M343.1,187c1.1-1.1,1.7-2.8,1.7-5.2c0.1-3.3,0.2-5.7,0.2-7.2c0-1.6-0.1-4-0.2-7c-0.1-2.3-0.6-4-1.8-5.2c-1.1-1.1-2.6-1.7-4.5-1.7
		s-3.4,0.6-4.5,1.7c-1.1,1.1-1.7,2.8-1.8,5.2c-0.1,1.5-0.1,3.9-0.1,7s0,5.5,0.1,7.2c0.1,2.3,0.6,4,1.7,5.2c1.1,1.1,2.6,1.7,4.5,1.7
		C340.5,188.7,342,188.2,343.1,187z"/>
</g>
<g>
	<path class="st3" d="M64,203c-3.8-1.6-6.8-3.7-8.7-6.3c-2-2.6-3-5.4-3.1-8.5c0-0.5,0.2-0.9,0.6-1.3c0.4-0.3,0.8-0.5,1.3-0.5h11.3
		c0.7,0,1.2,0.1,1.7,0.3c0.4,0.2,0.9,0.6,1.4,1.2c0.7,1.4,1.9,2.5,3.4,3.3c1.6,0.9,3.6,1.3,6.2,1.3c3.1,0,5.4-0.5,7-1.4
		c1.6-0.9,2.5-2.2,2.5-3.9c0-1.2-0.4-2.2-1.3-2.9c-0.8-0.8-2.2-1.4-4.1-2c-1.9-0.6-4.5-1.3-8-2c-6.8-1.4-11.9-3.4-15.3-6.2
		c-3.4-2.8-5.1-6.7-5.1-11.9c0-3.5,1-6.6,2.9-9.4c1.9-2.7,4.7-4.9,8.3-6.4c3.6-1.5,7.8-2.3,12.5-2.3c5,0,9.3,0.9,12.9,2.6
		c3.6,1.7,6.4,3.9,8.4,6.4c1.9,2.6,3,5.1,3.1,7.6c0,0.5-0.2,0.9-0.5,1.3s-0.8,0.6-1.3,0.6H88.1c-1.2,0-2.2-0.5-2.9-1.5
		c-0.3-1.2-1.2-2.2-2.6-3c-1.4-0.8-3.2-1.2-5.3-1.2c-2.4,0-4.2,0.4-5.5,1.3c-1.3,0.8-1.9,2.1-1.9,3.7c0,1.6,0.8,2.9,2.5,3.9
		c1.7,0.9,4.9,1.9,9.5,2.8c5.3,1,9.5,2.2,12.7,3.6c3.1,1.4,5.5,3.3,6.9,5.6c1.5,2.3,2.2,5.2,2.2,8.7c0,3.8-1.1,7.2-3.3,10
		c-2.2,2.8-5.3,5-9.2,6.5c-3.9,1.5-8.4,2.2-13.4,2.2C72.5,205.4,67.8,204.6,64,203z"/>
	<path class="st3" d="M121.6,203.9c-0.4-0.4-0.6-0.9-0.6-1.5V159h-14.9c-0.6,0-1.1-0.2-1.6-0.6c-0.4-0.4-0.6-0.9-0.6-1.5v-9.5
		c0-0.6,0.2-1.1,0.6-1.6c0.4-0.4,0.9-0.6,1.6-0.6h46c0.6,0,1.1,0.2,1.6,0.6c0.4,0.4,0.6,0.9,0.6,1.6v9.5c0,0.6-0.2,1.1-0.6,1.5
		c-0.4,0.4-0.9,0.6-1.6,0.6h-14.9v43.4c0,0.6-0.2,1.1-0.6,1.5c-0.4,0.4-0.9,0.6-1.6,0.6h-11.8C122.6,204.5,122,204.3,121.6,203.9z"
		/>
	<path class="st3" d="M159,203.9c-0.4-0.4-0.6-0.9-0.6-1.5v-55.1c0-0.6,0.2-1.1,0.6-1.5c0.4-0.4,0.9-0.6,1.5-0.6h12.1
		c0.6,0,1.1,0.2,1.5,0.6c0.4,0.4,0.6,0.9,0.6,1.5v55.1c0,0.6-0.2,1.1-0.6,1.5c-0.4,0.4-0.9,0.6-1.5,0.6h-12.1
		C159.9,204.5,159.4,204.3,159,203.9z"/>
	<path class="st3" d="M188.4,199.5c-4.6-3.9-7-9.6-7.3-17.1c-0.1-1.5-0.1-4-0.1-7.5c0-3.5,0-6,0.1-7.6c0.3-7.3,2.8-13,7.4-17
		c4.7-4,11-6,18.9-6c5,0,9.5,0.8,13.5,2.5c4,1.6,7.1,4,9.4,7.1c2.3,3.1,3.5,6.8,3.6,11c0,0.5-0.2,0.9-0.6,1.3
		c-0.4,0.3-0.8,0.5-1.3,0.5h-12c-0.8,0-1.4-0.2-1.7-0.5c-0.4-0.3-0.7-0.9-1-1.7c-0.8-2.8-2-4.7-3.6-5.8c-1.6-1.1-3.7-1.7-6.4-1.7
		c-6.4,0-9.7,3.6-9.9,10.7c-0.1,1.5-0.1,3.9-0.1,7c0,3.2,0,5.6,0.1,7.2c0.2,7.1,3.5,10.7,9.9,10.7c2.6,0,4.7-0.6,6.4-1.7
		c1.7-1.1,2.9-3.1,3.6-5.8c0.2-0.8,0.5-1.4,0.9-1.7c0.4-0.3,1-0.5,1.8-0.5h12c0.5,0,0.9,0.2,1.3,0.5c0.4,0.3,0.6,0.8,0.6,1.3
		c-0.1,4.2-1.3,7.9-3.6,11c-2.3,3.1-5.5,5.5-9.4,7.1s-8.5,2.5-13.5,2.5C199.3,205.4,193,203.4,188.4,199.5z"/>
	<path class="st3" d="M239.9,203.9c-0.4-0.4-0.6-0.9-0.6-1.5v-55c0-0.6,0.2-1.1,0.6-1.6c0.4-0.4,0.9-0.6,1.5-0.6h11.4
		c0.6,0,1.1,0.2,1.5,0.6c0.4,0.4,0.6,0.9,0.6,1.6v18.5l15-19c0.6-1.1,1.7-1.7,3.3-1.7h13c0.5,0,0.9,0.2,1.2,0.6
		c0.4,0.4,0.6,0.8,0.6,1.2c0,0.5-0.1,0.8-0.3,1l-19.7,25.6l21.4,28.1c0.2,0.2,0.3,0.6,0.3,1c0,0.5-0.2,0.9-0.6,1.2
		c-0.4,0.4-0.8,0.6-1.3,0.6h-13.3c-0.9,0-1.6-0.2-2.2-0.6c-0.6-0.4-1-0.7-1.2-1.1l-16.1-20.7v20.3c0,0.6-0.2,1.1-0.6,1.5
		c-0.4,0.4-0.9,0.6-1.5,0.6h-11.4C240.8,204.5,240.3,204.3,239.9,203.9z"/>
</g>
</svg>
